# xmcd
#
# Track frame offsets:
#	150
#	17988
#	53803
#	81815
#	105139
#	134018
#	157226
#	182529
#	209751
#	241127
#	245341
#	258347
#	270977
#
# Disc length: 4064 seconds
#
# Revision: 1
# Processed by: cddbd v1.5.2PL0 Copyright (c) Steve Scherf et al.
# Submitted via: audiograbber 1.83.01
#
DISCID=ae0fde0d
DTITLE=Re-Trick - Evidence
DYEAR=2009
DGENRE=Jazz
TTITLE0=From J To Z
TTITLE1=Strings
TTITLE2=Stream Of Pieces
TTITLE3=Evidence
TTITLE4=Ambivalent
TTITLE5=Archaic (Acoustic)
TTITLE6=Inner Flame
TTITLE7=Summertime
TTITLE8=So Far Away - You've Got A Friend
TTITLE9=Sebastian
TTITLE10=Good Fellow
TTITLE11=Lullaby
TTITLE12=Blue Motion
EXTD=YEAR: 2009
EXTT0=
EXTT1=
EXTT2=
EXTT3=
EXTT4=
EXTT5=
EXTT6=
EXTT7=
EXTT8=
EXTT9=
EXTT10=
EXTT11=
EXTT12=
PLAYORDER=
